<svg width="129" height="75" viewBox="0 0 129 75" fill="none" xmlns="http://www.w3.org/2000/svg">
<path d="M0.0568848 31.356V0.272705H10.9239C13.0892 0.272705 14.8751 0.647081 16.2815 1.39583C17.688 2.13447 18.7352 3.13112 19.4233 4.38578C20.1113 5.63033 20.4553 7.01147 20.4553 8.52921C20.4553 9.86482 20.2175 10.9677 19.742 11.8379C19.2765 12.7081 18.6593 13.3961 17.8903 13.902C17.1315 14.4079 16.3068 14.7823 15.4164 15.0251V15.3287C16.3675 15.3894 17.3237 15.7233 18.2849 16.3304C19.2462 16.9375 20.0506 17.8077 20.6982 18.9409C21.3457 20.0742 21.6695 21.4604 21.6695 23.0995C21.6695 24.6577 21.3154 26.0591 20.6071 27.3037C19.8988 28.5482 18.7807 29.5347 17.2529 30.2633C15.725 30.9918 13.7368 31.356 11.2882 31.356H0.0568848ZM3.82088 28.017H11.2882C13.7469 28.017 15.4923 27.5414 16.5244 26.5903C17.5666 25.6291 18.0876 24.4655 18.0876 23.0995C18.0876 22.0472 17.8195 21.0759 17.2832 20.1855C16.747 19.2849 15.983 18.5665 14.9915 18.0303C13.9999 17.4839 12.8261 17.2107 11.4703 17.2107H3.82088V28.017ZM3.82088 13.9324H10.8025C11.9357 13.9324 12.9577 13.7098 13.8683 13.2646C14.7891 12.8194 15.5176 12.192 16.0539 11.3826C16.6003 10.5731 16.8734 9.62199 16.8734 8.52921C16.8734 7.16325 16.3979 6.00471 15.4468 5.05359C14.4957 4.09235 12.988 3.61173 10.9239 3.61173H3.82088V13.9324Z" fill="#808080"/>
<path d="M27.8543 31.356V0.272705H46.6136V3.61173H31.6183V14.1145H45.6422V17.4535H31.6183V28.017H46.8564V31.356H27.8543Z" fill="#808080"/>
<path d="M53.3979 31.356V0.272705H57.1619V28.017H71.6108V31.356H53.3979Z" fill="#808080"/>
<path d="M77.4389 31.356V0.272705H81.2029V28.017H95.6518V31.356H77.4389Z" fill="#808080"/>
<path d="M104.716 31.356H100.77L112.184 0.272705H116.069L127.483 31.356H123.536L114.248 5.19018H114.005L104.716 31.356ZM106.173 19.2141H122.079V22.5531H106.173V19.2141Z" fill="#808080"/>
<path d="M0.0568848 74.0956V43.0123H10.9239C13.0892 43.0123 14.8751 43.3866 16.2815 44.1354C17.688 44.874 18.7352 45.8707 19.4233 47.1254C20.1113 48.3699 20.4553 49.751 20.4553 51.2688C20.4553 52.6044 20.2175 53.7073 19.742 54.5775C19.2765 55.4476 18.6593 56.1357 17.8903 56.6416C17.1315 57.1475 16.3068 57.5219 15.4164 57.7647V58.0683C16.3675 58.129 17.3237 58.4629 18.2849 59.07C19.2462 59.6771 20.0506 60.5472 20.6982 61.6805C21.3457 62.8137 21.6695 64.1999 21.6695 65.8391C21.6695 67.3973 21.3154 68.7987 20.6071 70.0432C19.8988 71.2878 18.7807 72.2743 17.2529 73.0028C15.725 73.7313 13.7368 74.0956 11.2882 74.0956H0.0568848ZM3.82088 70.7566H11.2882C13.7469 70.7566 15.4923 70.281 16.5244 69.3299C17.5666 68.3687 18.0876 67.2051 18.0876 65.8391C18.0876 64.7868 17.8195 63.8154 17.2832 62.925C16.747 62.0245 15.983 61.3061 14.9915 60.7698C13.9999 60.2235 12.8261 59.9503 11.4703 59.9503H3.82088V70.7566ZM3.82088 56.6719H10.8025C11.9357 56.6719 12.9577 56.4493 13.8683 56.0041C14.7891 55.5589 15.5176 54.9316 16.0539 54.1221C16.6003 53.3127 16.8734 52.3616 16.8734 51.2688C16.8734 49.9028 16.3979 48.7443 15.4468 47.7932C14.4957 46.8319 12.988 46.3513 10.9239 46.3513H3.82088V56.6719Z" fill="#808080"/>
<path d="M30.4187 74.0956V43.0123H40.9214C43.3498 43.0123 45.3431 43.4271 46.9013 44.2568C48.4595 45.0764 49.613 46.2046 50.3618 47.6414C51.1105 49.0782 51.4849 50.7123 51.4849 52.5437C51.4849 54.3751 51.1105 55.9991 50.3618 57.4156C49.613 58.8322 48.4646 59.9452 46.9165 60.7547C45.3684 61.554 43.3903 61.9537 40.9821 61.9537H32.4828V58.5539H40.8607C42.5201 58.5539 43.8557 58.3111 44.8676 57.8254C45.8895 57.3397 46.6281 56.6517 47.0835 55.7613C47.5489 54.8608 47.7816 53.7882 47.7816 52.5437C47.7816 51.2991 47.5489 50.2114 47.0835 49.2805C46.618 48.3497 45.8743 47.6313 44.8524 47.1254C43.8304 46.6093 42.4797 46.3513 40.8 46.3513H34.1827V74.0956H30.4187ZM45.0497 60.1324L52.6991 74.0956H48.328L40.8 60.1324H45.0497Z" fill="#808080"/>
<path d="M64.0853 43.0123V74.0956H60.3213V43.0123H64.0853Z" fill="#808080"/>
<path d="M91.1954 50.7831C91.0132 49.2451 90.2746 48.0512 88.9795 47.2012C87.6843 46.3513 86.0958 45.9263 84.2138 45.9263C82.8377 45.9263 81.6336 46.1489 80.6015 46.5941C79.5796 47.0393 78.7803 47.6515 78.2035 48.4306C77.6369 49.2097 77.3536 50.0951 77.3536 51.0867C77.3536 51.9163 77.5509 52.6297 77.9455 53.2267C78.3502 53.8135 78.8663 54.3043 79.4936 54.6989C80.1209 55.0834 80.7786 55.4021 81.4667 55.6551C82.1547 55.8979 82.7871 56.0952 83.3638 56.247L86.5207 57.0969C87.3302 57.3094 88.2307 57.6028 89.2223 57.9772C90.224 58.3516 91.1802 58.8625 92.0908 59.5101C93.0116 60.1476 93.7705 60.9671 94.3675 61.9689C94.9644 62.9706 95.2629 64.1999 95.2629 65.657C95.2629 67.3366 94.8228 68.8543 93.9425 70.2102C93.0723 71.566 91.7974 72.6436 90.1178 73.443C88.4483 74.2423 86.4196 74.642 84.0316 74.642C81.8056 74.642 79.8781 74.2828 78.249 73.5644C76.6301 72.846 75.3552 71.8443 74.4243 70.5593C73.5036 69.2742 72.9825 67.7818 72.8611 66.0819H76.7465C76.8477 67.2556 77.2423 68.227 77.9303 68.996C78.6285 69.7549 79.5088 70.3215 80.5712 70.6959C81.6437 71.0601 82.7972 71.2422 84.0316 71.2422C85.4684 71.2422 86.7585 71.0095 87.9019 70.5441C89.0452 70.0685 89.9508 69.4108 90.6186 68.571C91.2864 67.7211 91.6203 66.7295 91.6203 65.5963C91.6203 64.5642 91.332 63.7244 90.7552 63.0768C90.1785 62.4292 89.4196 61.9031 88.4786 61.4984C87.5376 61.0936 86.5207 60.7395 85.428 60.4359L81.6033 59.3432C79.1749 58.645 77.2524 57.6484 75.8358 56.3532C74.4193 55.0581 73.711 53.3633 73.711 51.2688C73.711 49.5284 74.1815 48.0107 75.1225 46.7156C76.0736 45.4103 77.3485 44.3985 78.9472 43.6801C80.556 42.9516 82.352 42.5873 84.3352 42.5873C86.3386 42.5873 88.1194 42.9465 89.6776 43.6649C91.2358 44.3732 92.4703 45.3445 93.3809 46.579C94.3017 47.8134 94.7874 49.2148 94.8379 50.7831H91.1954Z" fill="#808080"/>
<path d="M105.291 74.0956H101.345L112.758 43.0123H116.643L128.057 74.0956H124.111L114.822 47.9298H114.579L105.291 74.0956ZM106.748 61.9537H122.654V65.2927H106.748V61.9537Z" fill="#808080"/>
</svg>
